<svg xmlns="http://www.w3.org/2000/svg" viewBox="0 0 512 512">
  <defs>
    <linearGradient id="grad" x1="0%" y1="0%" x2="100%" y2="100%">
      <stop offset="0%" style="stop-color:#34d399;stop-opacity:1" />
      <stop offset="100%" style="stop-color:#059669;stop-opacity:1" />
    </linearGradient>
    <filter id="shadow" x="-20%" y="-20%" width="140%" height="140%">
      <feDropShadow dx="0" dy="4" stdDeviation="8" flood-opacity="0.2"/>
    </filter>
  </defs>
  
  <!-- Background -->
  <rect width="512" height="512" rx="128" fill="url(#grad)" />
  
  <!-- Leaf Icon -->
  <g transform="translate(106, 106) scale(0.6)" filter="url(#shadow)">
    <path fill="#ffffff" d="M256,512c0,0-192-96-192-288S150,32,256,32s192,100,192,192S256,512,256,512z"/>
    <path fill="#10b981" d="M256,512c0,0,0-192,0-384"/> <!-- Stem/Vein -->
    <path fill="none" stroke="#10b981" stroke-width="24" stroke-linecap="round" d="M256,420c0,0,60-60,80-120"/>
    <path fill="none" stroke="#10b981" stroke-width="24" stroke-linecap="round" d="M256,320c0,0-50-40-70-100"/>
    <path fill="none" stroke="#10b981" stroke-width="24" stroke-linecap="round" d="M256,220c0,0,40-30,50-70"/>
  </g>
</svg>